# xmcd
#
# Track frame offsets:
#  150
#  17925
#  31511
#  56087
#  75726
#  99653
#  112791
#  135325
#  156397
#  176174
#  197792
#  217088
#  239722
#  270099
#  293541
#
# Disc length: 4281 seconds
#
# Revision: 0
# Processed by: cddbd v1.5.1PL0 Copyright (c) Steve Scherf et al.
# Submitted via: Collectorz.com Music Collector 6.9
#
DISCID=cc10b70f
DTITLE=tom russell - Live Off Broadway - May 8th 1992 - Disc 2
DYEAR=1992
DGENRE=
TTITLE0=All The King's Horses
TTITLE1=Wise Blood
TTITLE2=Us Steel
TTITLE3=Hong Kong Boy
TTITLE4=William Faulkner In Hollywood
TTITLE5=The Definition Of A Fool
TTITLE6=A Dollar's Worth Of Gasoline
TTITLE7=Hurricane Season
TTITLE8=Annette
TTITLE9=Blue Wing
TTITLE10=Gimme Some Of Your Loving
TTITLE11=The Road To Bayamon
TTITLE12=Haley's Comet
TTITLE13=Joshua Tree
TTITLE14=The White Trash Song
EXTD=
EXTT0=
EXTT1=
EXTT2=
EXTT3=
EXTT4=
EXTT5=
EXTT6=
EXTT7=
EXTT8=
EXTT9=
EXTT10=
EXTT11=
EXTT12=
EXTT13=
EXTT14=
PLAYORDER=
